<svg width="2299" height="2809" viewBox="0 0 2299 2809" fill="none" xmlns="http://www.w3.org/2000/svg">
<path d="M779.992 473.62C1280.06 293.061 1868.6 327.942 2070.73 0.129395C2168.41 87.2128 2379.88 398.179 2266.38 717.268C2035.61 1366.04 960.656 764.016 675.453 1591.97C564.573 1913.86 764.702 2259.96 1054.4 2359.75C1379.71 2471.81 1585.16 2335.49 1638.22 2172.7C1679.99 2044.54 1627.31 1899.97 1464.31 1847.3C1318.2 1800.08 1131.62 1860.23 1054.59 2044.78C857.365 1640.28 1262.12 1218.34 1755.03 1388.13C2154.92 1525.88 2242.1 1891.13 2127.65 2214.19C1964.2 2675.54 1464.43 2942.91 873.572 2739.38C-245.872 2353.77 -301.218 864.006 779.992 473.62Z" fill="black"/>
<path opacity="0.5" d="M650.904 1691.88L651.061 1691.62C656.13 1658.34 664.063 1625.03 675.45 1591.97C960.654 764.016 2035.61 1366.04 2266.38 717.268C2379.88 398.179 2168.42 87.2128 2070.73 0.129395C2299.54 1086.52 727.919 256.758 650.904 1691.88Z" fill="url(#paint0_linear_4_9)"/>
<path opacity="0.5" d="M1054.59 2044.78C1131.62 1860.24 1318.2 1800.09 1464.31 1847.3C1627.3 1899.98 1679.98 2044.54 1638.21 2172.7C1585.16 2335.49 1379.72 2471.81 1054.4 2359.75C955.716 2325.76 867.466 2263.14 798.324 2182.68C1128.82 2603.32 1664.66 2528.44 1818.16 2212.53C1936.69 1968.6 1782.46 1744.16 1580.88 1668.67C1374.38 1591.34 1118.19 1670.32 1054.59 2044.78Z" fill="url(#paint1_linear_4_9)"/>
<defs>
<linearGradient id="paint0_linear_4_9" x1="844.212" y1="1556.28" x2="3262" y2="-729" gradientUnits="userSpaceOnUse">
<stop stop-color="#353535"/>
<stop offset="1" stop-color="white" stop-opacity="0"/>
</linearGradient>
<linearGradient id="paint1_linear_4_9" x1="1239.7" y1="1784.28" x2="1451.01" y2="2500.01" gradientUnits="userSpaceOnUse">
<stop stop-color="#404040"/>
<stop offset="1" stop-color="white" stop-opacity="0"/>
</linearGradient>
</defs>
</svg>
